<?xml version="1.0" encoding="UTF-8" standalone="no"?>
<!-- Created with Inkscape (http://www.inkscape.org/) -->

<svg
   width="204.77872mm"
   height="28.212748mm"
   viewBox="0 0 204.77872 28.212748"
   version="1.1"
   id="svg1"
   xml:space="preserve"
   inkscape:version="1.3.2 (091e20e, 2023-11-25, custom)"
   sodipodi:docname="SharkSplashTitle.svg"
   inkscape:export-filename="SharkSplashTitle.svg"
   inkscape:export-xdpi="96"
   inkscape:export-ydpi="96"
   xmlns:inkscape="http://www.inkscape.org/namespaces/inkscape"
   xmlns:sodipodi="http://sodipodi.sourceforge.net/DTD/sodipodi-0.dtd"
   xmlns="http://www.w3.org/2000/svg"
   xmlns:svg="http://www.w3.org/2000/svg"><sodipodi:namedview
     id="namedview1"
     pagecolor="#505050"
     bordercolor="#ffffff"
     borderopacity="1"
     inkscape:showpageshadow="0"
     inkscape:pageopacity="0"
     inkscape:pagecheckerboard="1"
     inkscape:deskcolor="#505050"
     inkscape:document-units="mm"
     inkscape:zoom="0.83472924"
     inkscape:cx="242.59363"
     inkscape:cy="259.36554"
     inkscape:window-width="1920"
     inkscape:window-height="1175"
     inkscape:window-x="-7"
     inkscape:window-y="-7"
     inkscape:window-maximized="1"
     inkscape:current-layer="layer1" /><defs
     id="defs1"><rect
       x="313.27524"
       y="400.12976"
       width="373.7739"
       height="147.95216"
       id="rect2" /><rect
       x="58.701672"
       y="97.037453"
       width="673.27222"
       height="328.25015"
       id="rect1" /></defs><g
     inkscape:label="Layer 1"
     inkscape:groupmode="layer"
     id="layer1"
     transform="translate(-0.59841309,-67.160242)"><path
       id="text1"
       style="font-size:100px;font-family:Shrikhand;-inkscape-font-specification:'Shrikhand, Normal';white-space:pre;stroke-width:0.37096;fill: black; stroke: black;"
       d="m 198.5455,67.160242 c -0.2052,0 -0.38735,0.05273 -0.54622,0.158646 -0.15887,0.105914 -0.28136,0.241722 -0.36742,0.407211 -0.0861,0.158869 -0.12919,0.321302 -0.12919,0.486792 0.007,0.251543 0.0929,0.462994 0.25839,0.635103 0.1721,0.165489 0.38407,0.248564 0.63562,0.248564 0.19858,0 0.37701,-0.05005 0.53588,-0.149345 0.16549,-0.105913 0.2917,-0.241205 0.37775,-0.406694 0.0927,-0.165489 0.13901,-0.33432 0.13901,-0.506429 0,-0.244924 -0.0863,-0.450494 -0.25838,-0.615983 -0.17211,-0.172108 -0.38728,-0.257865 -0.64544,-0.257865 z m -3.86281,0.109037 c -0.41041,0 -0.80401,0.05645 -1.18132,0.168982 -0.3773,0.112532 -0.58607,0.244625 -0.6258,0.396875 -0.0198,0.06619 -0.0161,0.119443 0.0103,0.159163 0.0331,0.03972 0.0826,0.08606 0.14883,0.13901 0.0595,0.04633 0.10588,0.09267 0.13901,0.13901 0.0397,0.04634 0.0594,0.105985 0.0594,0.1788 0,0.03972 -0.0101,0.08925 -0.03,0.148828 l -0.33744,1.112077 c -0.16549,-0.132394 -0.35083,-0.231463 -0.55604,-0.297656 -0.19859,-0.06619 -0.43986,-0.09974 -0.7245,-0.09974 -0.52294,0 -0.99002,0.165632 -1.40044,0.496611 -0.41041,0.324359 -0.73156,0.754693 -0.96324,1.290877 -0.22507,0.529565 -0.33745,1.095707 -0.33745,1.698088 0,0.357456 0.0762,0.67809 0.22841,0.962731 0.15887,0.278022 0.36764,0.493189 0.6258,0.645439 0.26479,0.15225 0.54919,0.22841 0.85369,0.22841 0.25816,0 0.50316,-0.05593 0.73484,-0.168465 0.23169,-0.112533 0.43674,-0.284563 0.61547,-0.516248 0.0927,0.205207 0.2615,0.370322 0.50643,0.496094 0.24492,0.125772 0.53305,0.188619 0.86403,0.188619 0.27802,0 0.53633,-0.05965 0.77463,-0.178801 0.2383,-0.119152 0.42684,-0.270955 0.56585,-0.456302 0.14568,-0.185348 0.21493,-0.367492 0.20826,-0.54622 0,-0.05958 -0.01,-0.11283 -0.0294,-0.159164 -0.0198,-0.04634 -0.0464,-0.06925 -0.0796,-0.06925 -0.0198,0 -0.0598,0.03622 -0.11937,0.109037 -0.053,0.06619 -0.119,0.09922 -0.19844,0.09922 -0.0397,0 -0.0728,-0.01279 -0.0992,-0.03927 -0.0265,-0.02648 -0.0398,-0.06322 -0.0398,-0.109554 0,-0.01986 0.007,-0.05608 0.0202,-0.109038 l 1.41955,-4.666898 c 0.0463,-0.139011 0.0698,-0.281217 0.0698,-0.426847 0,-0.251544 -0.0927,-0.450199 -0.27802,-0.59583 -0.17872,-0.14563 -0.46045,-0.218591 -0.84439,-0.218591 z m -20.32486,0.665592 c -0.55604,0 -1.04922,0.139008 -1.47949,0.417029 -0.43028,0.278022 -0.71521,0.644992 -0.85421,1.101742 -0.0728,0.225065 -0.10904,0.453544 -0.10904,0.685229 0,0.330979 0.0762,0.619106 0.22841,0.86403 0.15886,0.244924 0.34421,0.449977 0.55604,0.615467 0.21182,0.158869 0.48664,0.341013 0.82424,0.546219 0.31773,0.185348 0.55262,0.344066 0.70486,0.476457 0.15225,0.132392 0.22841,0.278314 0.22841,0.437183 0,0.06619 -0.007,0.115728 -0.0202,0.148828 -0.0397,0.125774 -0.10897,0.218446 -0.20826,0.278019 -0.0927,0.05295 -0.22848,0.07958 -0.40721,0.07958 -0.25154,0 -0.46991,-0.05965 -0.65526,-0.178801 -0.17872,-0.119152 -0.37418,-0.33112 -0.58601,-0.63562 -0.19858,-0.278022 -0.3605,-0.469762 -0.48627,-0.575675 -0.11915,-0.105913 -0.25497,-0.159164 -0.40721,-0.159164 -0.14564,0 -0.26493,0.03622 -0.3576,0.109038 -0.0927,0.07281 -0.16566,0.195311 -0.21859,0.367419 l -0.48628,1.479496 c -0.0265,0.07282 -0.0398,0.14258 -0.0398,0.208773 0,0.125772 0.0431,0.224841 0.12919,0.297656 0.0927,0.07282 0.21517,0.109554 0.36742,0.109554 0.13239,0 0.25118,-0.02342 0.35708,-0.06976 0.10592,-0.05296 0.24172,-0.148826 0.40721,-0.287838 l 0.35761,-0.297656 c 0.32435,0.251544 0.64231,0.429972 0.95343,0.535885 0.31112,0.105912 0.69459,0.159163 1.15135,0.159163 0.609,0 1.14212,-0.135808 1.59887,-0.40721 0.45675,-0.278022 0.76459,-0.68173 0.92345,-1.211296 0.0662,-0.205206 0.0992,-0.410776 0.0992,-0.615983 0,-0.317739 -0.0794,-0.598952 -0.23823,-0.843876 -0.15886,-0.244924 -0.35112,-0.449977 -0.57619,-0.615466 -0.22506,-0.165489 -0.50948,-0.350832 -0.85369,-0.556039 -0.3376,-0.205206 -0.58579,-0.374037 -0.74466,-0.506429 -0.15887,-0.13901 -0.23823,-0.288131 -0.23823,-0.447001 0,-0.13901 0.0495,-0.254591 0.14883,-0.347265 0.0993,-0.09929 0.22179,-0.149345 0.36742,-0.149345 0.19859,0 0.39033,0.05645 0.57567,0.168982 0.19197,0.105913 0.40394,0.291256 0.63562,0.556038 0.23169,0.278022 0.40052,0.463365 0.50643,0.556038 0.11253,0.08605 0.24143,0.129192 0.38706,0.129192 0.13901,0 0.24179,-0.03303 0.30799,-0.09922 0.0728,-0.0662 0.13247,-0.179094 0.1788,-0.337964 l 0.41703,-1.369942 c 0.0199,-0.05958 0.03,-0.116029 0.03,-0.168982 0,-0.132394 -0.0463,-0.231463 -0.13901,-0.297656 -0.0927,-0.07282 -0.21888,-0.109554 -0.37775,-0.109554 -0.13239,0 -0.25117,0.02342 -0.35709,0.06976 -0.0993,0.04634 -0.2287,0.132093 -0.38757,0.257865 l -0.22841,0.189136 c -0.32436,-0.191967 -0.64499,-0.330974 -0.96273,-0.417029 -0.31112,-0.09267 -0.65198,-0.13901 -1.02268,-0.13901 z m 6.59288,0.337448 c -0.29126,0 -0.52985,0.04314 -0.7152,0.129191 -0.17873,0.08605 -0.37738,0.237857 -0.59583,0.456302 l -0.62528,0.625802 h -0.55604 c -0.18535,0 -0.32116,0.02342 -0.40721,0.06976 -0.0861,0.04634 -0.14252,0.112383 -0.16898,0.198438 -0.0199,0.08606 -0.01,0.162216 0.03,0.22841 0.0397,0.05958 0.10948,0.135736 0.20877,0.228409 0.11251,0.09929 0.19827,0.195164 0.25787,0.287838 0.0662,0.09267 0.0992,0.205056 0.0992,0.337447 0,0.0662 -0.0165,0.155668 -0.0496,0.268201 l -0.63562,1.965771 c -0.0529,0.15225 -0.0791,0.311485 -0.0791,0.476974 0,0.357456 0.13581,0.63867 0.40721,0.843876 0.27141,0.205207 0.63198,0.307992 1.08211,0.307992 0.41703,0 0.79782,-0.06656 1.14204,-0.198955 0.34422,-0.139011 0.61532,-0.300928 0.81391,-0.486275 0.20525,-0.191968 0.30484,-0.354401 0.29817,-0.486792 0,-0.04633 -0.0133,-0.08256 -0.0398,-0.109037 -0.0199,-0.0331 -0.0529,-0.04961 -0.0992,-0.04961 -0.0596,0 -0.12934,0.01011 -0.20877,0.02997 -0.15887,0.02648 -0.29096,0.03927 -0.39688,0.03927 -0.11914,0 -0.21182,-0.02291 -0.27802,-0.06925 -0.0662,-0.04634 -0.0997,-0.129411 -0.0997,-0.248563 0,-0.105913 0.017,-0.208182 0.0501,-0.307475 l 0.74465,-2.452563 h 0.57568 c 0.31112,0 0.50977,-0.145922 0.59583,-0.437183 0.0133,-0.06619 0.0202,-0.11253 0.0202,-0.13901 0,-0.09267 -0.0367,-0.165114 -0.10955,-0.218074 -0.0662,-0.05295 -0.16207,-0.07958 -0.28784,-0.07958 h -0.52658 l 0.13901,-0.45682 c 0.0265,-0.08605 0.0398,-0.178726 0.0398,-0.278019 0,-0.317739 -0.20826,-0.476456 -0.62529,-0.476456 z m -27.64741,0.07131 c -0.73599,0 -1.38874,0.189613 -1.95853,0.569474 -0.56979,0.379863 -1.00912,0.866324 -1.31775,1.459859 -0.30864,0.569794 -0.46302,1.152096 -0.46302,1.74563 0.0237,0.902169 0.33251,1.661142 0.92604,2.278414 0.61728,0.593536 1.37728,0.890385 2.27945,0.890385 0.71224,0 1.35309,-0.177696 1.92288,-0.533817 0.59354,-0.379863 1.04477,-0.866328 1.3534,-1.45986 0.33238,-0.593534 0.49816,-1.19915 0.49816,-1.816426 0,-0.878432 -0.30876,-1.614082 -0.92604,-2.207617 -0.61728,-0.617276 -1.38868,-0.926042 -2.31459,-0.926042 z M 36.70887,68.734823 c -1.471967,0 -2.884728,0.202048 -4.237984,0.605647 -1.353259,0.403604 -2.100309,0.878667 -2.242757,1.42472 -0.07122,0.237413 -0.05982,0.427026 0.03514,0.569474 0.118707,0.142445 0.296921,0.30823 0.534334,0.498161 0.213673,0.166187 0.379453,0.333004 0.498161,0.499194 0.142448,0.16619 0.213941,0.379633 0.213941,0.640788 0,0.142449 -0.03523,0.320661 -0.106454,0.534334 l -5.413106,17.769975 c -0.16619,0.569793 -0.368233,0.985796 -0.605648,1.246952 -0.237414,0.261155 -0.534263,0.486514 -0.890385,0.676445 -0.403603,0.213672 -0.652796,0.462861 -0.747758,0.747758 -0.09497,0.332379 -1.59e-4,0.605402 0.284737,0.819071 0.284897,0.189931 0.73613,0.285254 1.353406,0.285254 h 8.119918 c 0.735983,0 1.282022,-0.07097 1.638143,-0.213424 0.35612,-0.142448 0.593394,-0.368326 0.712101,-0.676961 0.04748,-0.16619 0.03556,-0.297259 -0.03566,-0.392224 -0.07122,-0.118707 -0.190377,-0.261174 -0.356567,-0.427364 -0.213673,-0.16619 -0.379454,-0.331971 -0.498161,-0.498161 -0.118707,-0.189931 -0.178284,-0.439123 -0.178284,-0.747758 0,-0.213673 0.03575,-0.462861 0.106971,-0.747758 l 2.243274,-7.229533 v 0.07131 c 0.284896,-0.925914 0.653238,-1.590594 1.104325,-1.994194 0.474828,-0.427345 0.937976,-0.641304 1.389062,-0.641304 0.284897,0 0.522171,0.09481 0.712102,0.284737 0.213672,0.16619 0.320394,0.403979 0.320394,0.712618 0,0.189931 -0.05958,0.438607 -0.178284,0.747241 l -1.958537,5.128369 c -0.427345,1.092105 -0.641304,2.077982 -0.641304,2.956409 0.02374,1.210812 0.498804,2.183735 1.424719,2.919718 0.925914,0.712243 2.172375,1.068669 3.739306,1.068669 1.282033,0 2.374113,-0.202044 3.276286,-0.605648 0.925911,-0.427341 1.626336,-0.960955 2.101164,-1.601969 0.474827,-0.66476 0.700186,-1.341867 0.676444,-2.030367 0,-0.213673 -0.03523,-0.39137 -0.106453,-0.533818 -0.07122,-0.16619 -0.16603,-0.24908 -0.284737,-0.24908 -0.07123,0 -0.213691,0.130035 -0.427364,0.39119 -0.189932,0.237414 -0.427209,0.356568 -0.712101,0.356568 -0.142449,0 -0.261602,-0.04818 -0.356568,-0.143144 -0.07122,-0.09497 -0.106453,-0.225518 -0.106453,-0.391707 0,-0.189932 0.02332,-0.331882 0.0708,-0.426848 l 2.171961,-7.015592 c 0.237414,-0.712241 0.356567,-1.437011 0.356567,-2.172994 0,-1.400743 -0.451232,-2.539964 -1.353406,-3.418396 -0.878428,-0.878427 -2.042,-1.317749 -3.490226,-1.317749 -1.210811,0 -2.338118,0.237273 -3.382739,0.712101 -1.02088,0.474828 -1.99432,1.317717 -2.920235,2.528528 l 1.92288,-6.267835 c 0.16619,-0.498569 0.24908,-1.008345 0.24908,-1.530655 0,-0.902174 -0.33208,-1.61451 -0.996838,-2.136821 -0.641019,-0.522306 -1.650209,-0.783931 -3.027206,-0.783931 z m 68.83818,0 c -1.47196,0 -2.88421,0.202048 -4.23747,0.605647 -1.353258,0.403604 -2.101343,0.878667 -2.243792,1.42472 -0.07122,0.237413 -0.0588,0.427026 0.03617,0.569474 0.118707,0.142445 0.296404,0.30823 0.533818,0.498161 0.213673,0.166187 0.379984,0.333004 0.498684,0.499194 0.14245,0.16619 0.21342,0.379633 0.21342,0.640788 0,0.142449 -0.0357,0.320661 -0.10697,0.534334 l -5.413109,17.769975 c -0.16619,0.569793 -0.367718,0.985796 -0.605131,1.246952 -0.237414,0.261155 -0.534265,0.486514 -0.890385,0.676445 -0.403604,0.213672 -0.652792,0.462861 -0.747758,0.747758 -0.09497,0.332379 -1.61e-4,0.605402 0.284737,0.819071 0.284892,0.189931 0.736129,0.285254 1.353406,0.285254 h 8.1194 c 0.73598,0 1.28203,-0.07097 1.63815,-0.213424 0.35613,-0.142448 0.59339,-0.368326 0.7121,-0.676961 0.0475,-0.16619 0.0355,-0.297259 -0.0357,-0.392224 -0.0712,-0.118707 -0.18934,-0.261174 -0.35553,-0.427364 -0.21367,-0.16619 -0.37997,-0.331971 -0.49868,-0.498161 -0.1187,-0.189931 -0.17828,-0.439123 -0.17828,-0.747758 0,-0.213673 0.0352,-0.462861 0.10645,-0.747758 l 1.603,-5.235339 h 0.7121 c 0.42735,0 0.73612,0.07098 0.92605,0.213423 0.21366,0.142449 0.32091,0.368324 0.32091,0.676962 0,0.189932 -0.0596,0.498696 -0.17829,0.926041 l -0.67644,1.78077 c -0.18993,0.56979 -0.28474,1.07957 -0.28474,1.530656 0,1.234549 0.49786,2.231825 1.495,2.991549 0.25907,0.192792 0.53514,0.35998 0.82631,0.503845 -0.45095,-1.957623 -1.39252,-7.8556 2.13888,-12.79095 1.47975,-2.068039 3.72901,-3.962045 6.0415,-5.566069 -0.41837,-0.09959 -0.85983,-0.166398 -1.34979,-0.166398 -1.56693,0 -2.8248,0.463147 -3.77445,1.389062 -0.94966,0.925914 -1.72156,2.267181 -2.3151,4.024044 -0.16619,0.546049 -0.40347,0.962056 -0.71211,1.246952 -0.2849,0.284897 -0.66515,0.426331 -1.13998,0.426331 h -1.17512 l 3.098,-10.113595 c 0.16619,-0.498569 0.2496,-1.020264 0.2496,-1.566312 0,-0.902173 -0.32068,-1.602594 -0.9617,-2.101164 -0.64102,-0.522306 -1.65021,-0.783931 -3.0272,-0.783931 z m 60.39838,0 c -1.47196,0 -2.88421,0.202048 -4.23747,0.605647 -1.35326,0.403604 -2.10134,0.878667 -2.24379,1.42472 -0.0712,0.237413 -0.0599,0.427026 0.0351,0.569474 0.11871,0.142445 0.29743,0.30823 0.53485,0.498161 0.21367,0.166187 0.37998,0.333004 0.49868,0.499194 0.14245,0.16619 0.21342,0.379633 0.21342,0.640788 0,0.142449 -0.0357,0.320661 -0.10697,0.534334 l -5.41311,17.769975 c -0.16619,0.569793 -0.36822,0.985796 -0.60564,1.246952 -0.23741,0.261155 -0.53375,0.486514 -0.88987,0.676445 -0.40361,0.213672 -0.65332,0.462861 -0.74828,0.747758 -0.095,0.332379 3.7e-4,0.605402 0.28526,0.819071 0.2849,0.189931 0.73562,0.285254 1.35289,0.285254 h 8.11991 c 0.73598,0 1.28203,-0.07097 1.63815,-0.213424 0.35612,-0.142448 0.59339,-0.368326 0.7121,-0.676961 0.0475,-0.16619 0.0355,-0.297259 -0.0357,-0.392224 -0.0712,-0.118707 -0.19038,-0.261174 -0.35657,-0.427364 -0.21368,-0.16619 -0.37945,-0.331971 -0.49816,-0.498161 -0.11871,-0.189931 -0.17776,-0.439123 -0.17776,-0.747758 0,-0.213673 0.0352,-0.462861 0.10645,-0.747758 l 5.59139,-18.162716 c 0.16619,-0.498569 0.24908,-1.008345 0.24908,-1.530655 0,-0.902174 -0.33208,-1.61451 -0.99684,-2.136821 -0.64102,-0.522306 -1.6502,-0.783931 -3.0272,-0.783931 z m 18.36115,0.6196 c -0.41041,0 -0.80401,0.05965 -1.18132,0.1788 -0.3773,0.112533 -0.58607,0.245142 -0.62581,0.397392 -0.0198,0.06619 -0.0161,0.118927 0.0103,0.158647 0.0265,0.03972 0.0728,0.08606 0.13901,0.139009 0.0662,0.04634 0.11576,0.09268 0.14883,0.13901 0.0331,0.03972 0.0496,0.09617 0.0496,0.168982 0,0.03972 -0.0101,0.08925 -0.03,0.148828 l -0.63562,2.075326 c -0.0662,0.198586 -0.0992,0.390327 -0.0992,0.575675 0,0.410413 0.15551,0.731564 0.46663,0.963249 0.31774,0.225065 0.70865,0.337447 1.17203,0.337447 0.29788,0 0.5892,-0.06605 0.87384,-0.198438 0.29126,-0.139011 0.55596,-0.340865 0.79427,-0.605647 0.0662,0.258163 0.2148,0.466415 0.44649,0.625284 0.23168,0.15887 0.54272,0.238746 0.93327,0.238746 0.31112,0 0.59285,-0.05965 0.84439,-0.178801 0.25155,-0.119152 0.44649,-0.268273 0.5855,-0.447001 0.13905,-0.185348 0.20562,-0.370691 0.19895,-0.556038 0,-0.05957 -0.0133,-0.109109 -0.0398,-0.148829 -0.0198,-0.04633 -0.0465,-0.06976 -0.0796,-0.06976 -0.0198,0 -0.0593,0.03674 -0.11886,0.109554 -0.053,0.06619 -0.11952,0.09922 -0.19895,0.09922 -0.0397,0 -0.0728,-0.01331 -0.0992,-0.03979 -0.0199,-0.02648 -0.03,-0.0627 -0.03,-0.109037 0,-0.02648 0.007,-0.06641 0.0202,-0.119373 l 0.80409,-2.631364 c 0.0529,-0.172109 0.0796,-0.320713 0.0796,-0.446484 0,-0.244924 -0.0927,-0.440381 -0.27802,-0.586011 -0.17873,-0.14563 -0.46045,-0.218591 -0.84439,-0.218591 -0.41042,0 -0.80401,0.05965 -1.18133,0.1788 -0.37728,0.112533 -0.58233,0.245142 -0.61546,0.397392 -0.0198,0.06619 -0.0166,0.118927 0.01,0.158647 0.0265,0.03972 0.0728,0.08606 0.13901,0.139009 0.0596,0.04634 0.10594,0.09268 0.13901,0.13901 0.0331,0.03972 0.0496,0.09617 0.0496,0.168982 0,0.03972 -0.0101,0.08925 -0.03,0.148828 L 185.518,72.68084 c -0.0794,0.172108 -0.1588,0.294604 -0.23823,0.367419 -0.0794,0.07282 -0.18171,0.109038 -0.30748,0.109038 -0.0861,0 -0.15584,-0.02291 -0.20877,-0.06925 -0.0529,-0.04634 -0.0796,-0.116099 -0.0796,-0.208773 0,-0.06619 0.0133,-0.135441 0.0398,-0.208256 l 0.6258,-2.065507 c 0.0463,-0.139011 0.0692,-0.284416 0.0692,-0.436665 0,-0.251544 -0.0895,-0.4502 -0.2682,-0.59583 -0.17873,-0.14563 -0.45995,-0.218591 -0.84388,-0.218591 z m 13.57385,0 c -0.41041,0 -0.80453,0.05965 -1.18184,0.1788 -0.3773,0.112533 -0.58555,0.245142 -0.62529,0.397392 -0.0198,0.06619 -0.0166,0.118927 0.01,0.158647 0.0265,0.03972 0.0728,0.08606 0.13901,0.139009 0.0662,0.04634 0.1157,0.09268 0.14883,0.13901 0.0331,0.03972 0.0496,0.09617 0.0496,0.168982 0,0.03972 -0.01,0.08925 -0.0295,0.148828 l -0.86403,2.869592 c -0.0463,0.15887 -0.10278,0.274451 -0.16898,0.347266 -0.0662,0.07282 -0.14875,0.136183 -0.24805,0.189136 -0.11254,0.05958 -0.1823,0.128821 -0.20877,0.208256 -0.0265,0.09268 1.5e-4,0.168836 0.0796,0.22841 0.0794,0.05296 0.20513,0.07958 0.37724,0.07958 h 2.26395 c 0.2052,0 0.35752,-0.02022 0.45682,-0.05994 0.0993,-0.03972 0.1653,-0.102565 0.19843,-0.188619 0.0132,-0.04634 0.0101,-0.08256 -0.01,-0.109038 -0.0199,-0.03309 -0.0529,-0.07303 -0.0992,-0.119372 -0.0595,-0.04633 -0.10588,-0.09267 -0.13901,-0.13901 -0.0331,-0.05296 -0.0496,-0.122201 -0.0496,-0.208256 0,-0.05958 0.01,-0.129338 0.0294,-0.208773 l 0.91364,-2.968811 c 0.0463,-0.139011 0.0698,-0.284416 0.0698,-0.436665 0,-0.251544 -0.0895,-0.4502 -0.2682,-0.59583 -0.17872,-0.14563 -0.45993,-0.218591 -0.84387,-0.218591 z m 4.86533,0 c -0.58252,0 -1.13215,0.112899 -1.64847,0.337964 -0.50971,0.218446 -0.94324,0.529483 -1.3007,0.933276 -0.35083,0.397175 -0.58891,0.853617 -0.71468,1.369942 -0.0529,0.251544 -0.0796,0.480023 -0.0796,0.68523 0,0.609 0.21837,1.098983 0.65526,1.469678 0.44351,0.364076 1.12523,0.54622 2.04535,0.54622 0.58252,0 1.12204,-0.109183 1.61851,-0.327629 0.50309,-0.225065 0.92702,-0.539819 1.27124,-0.943612 0.34422,-0.410413 0.5791,-0.887082 0.70487,-1.429887 0.0529,-0.244923 0.0796,-0.466489 0.0796,-0.665075 0,-0.589142 -0.21517,-1.065811 -0.64544,-1.429887 -0.42365,-0.364076 -1.08567,-0.54622 -1.98593,-0.54622 z m -0.03,0.883667 c 0.0794,0 0.13907,0.02662 0.1788,0.07958 0.0463,0.05296 0.0693,0.148826 0.0693,0.287837 0,0.291261 -0.10227,0.757817 -0.30748,1.399915 -0.22506,0.728152 -0.4136,1.218135 -0.56585,1.469678 -0.14563,0.251544 -0.28835,0.370841 -0.42737,0.357601 -0.0794,0 -0.14228,-0.02342 -0.18862,-0.06976 -0.0463,-0.05296 -0.0692,-0.152025 -0.0692,-0.297656 0,-0.278022 0.10598,-0.761089 0.31781,-1.449524 0.21182,-0.688434 0.39345,-1.155507 0.5457,-1.400431 0.15887,-0.251544 0.308,-0.377238 0.447,-0.377238 z m -10.40608,0.01033 c 0.12577,0 0.24187,0.04634 0.34778,0.13901 l -0.77463,2.511991 c -0.0529,0.158869 -0.10938,0.274451 -0.16898,0.347266 -0.0596,0.06619 -0.13202,0.09922 -0.21808,0.09922 -0.2383,0 -0.3576,-0.181627 -0.3576,-0.545703 -0.007,-0.324359 0.0461,-0.688647 0.15865,-1.09244 0.11253,-0.403794 0.26166,-0.747854 0.447,-1.032495 0.18535,-0.284641 0.37389,-0.426848 0.56586,-0.426849 z M 14.13092,71.120723 c -1.994276,0 -3.762946,0.498895 -5.3061357,1.496033 -1.5431894,0.997135 -2.5642934,2.315091 -3.0628621,3.953247 -0.2611549,0.807203 -0.3911906,1.625753 -0.3911906,2.456698 0,1.18707 0.2725029,2.21957 0.8185547,3.098002 0.5697928,0.878428 1.2349862,1.615115 1.9947103,2.208651 0.759724,0.569793 1.7445646,1.222553 2.9553754,1.958536 1.139586,0.66476 1.982476,1.234628 2.528528,1.709457 0.546051,0.474827 0.819588,0.997035 0.819588,1.566829 0,0.237414 -0.02435,0.41511 -0.07183,0.533818 -0.142448,0.451086 -0.391638,0.784199 -0.747758,0.997872 -0.33238,0.189931 -0.818842,0.284737 -1.45986,0.284737 -0.902172,0 -1.685485,-0.21396 -2.3502438,-0.641305 C 9.2167799,90.315953 8.5163565,89.555951 7.7566325,88.463851 7.0443913,87.466712 6.4620888,86.778723 6.0110026,86.398861 5.5836578,86.018998 5.0971947,85.82887 4.5511434,85.82887 c -0.5223104,0 -0.9491963,0.130551 -1.2815755,0.391707 -0.3323792,0.261155 -0.5940003,0.700473 -0.7839315,1.317749 l -1.74459636,5.306136 c -0.0949652,0.261156 -0.14262695,0.510344 -0.14262695,0.747758 0,0.451084 0.15438307,0.807513 0.46302081,1.068669 0.3323793,0.26115 0.7716976,0.391707 1.317749,0.391707 0.4748276,0 0.9017135,-0.08289 1.2815756,-0.24908 0.379862,-0.189931 0.8673585,-0.53496 1.4608927,-1.033529 l 1.2815755,-1.067635 c 1.1633274,0.902173 2.3030682,1.543017 3.4189128,1.92288 1.1158445,0.379863 2.4923425,0.569474 4.1304975,0.569474 2.184207,0 4.09586,-0.486462 5.734017,-1.459859 1.638152,-0.997139 2.742149,-2.445643 3.311942,-4.344954 0.237414,-0.735985 0.355534,-1.471634 0.355534,-2.207618 0,-1.139586 -0.284418,-2.148774 -0.854211,-3.027205 -0.569794,-0.878432 -1.2583,-1.614082 -2.065507,-2.207617 -0.807209,-0.593535 -1.827793,-1.258727 -3.062346,-1.99471 -1.210808,-0.735984 -2.101878,-1.3416 -2.671671,-1.816427 -0.569794,-0.49857 -0.854212,-1.032176 -0.854212,-1.601969 0,-0.49857 0.178214,-0.914577 0.534335,-1.246953 0.35612,-0.35612 0.795438,-0.533817 1.317749,-0.533817 0.71224,0 1.400231,0.202047 2.06499,0.605647 0.6885,0.379863 1.448498,1.044025 2.279447,1.993677 0.830949,0.997139 1.436568,1.662331 1.816427,1.99471 0.403603,0.308638 0.866234,0.463021 1.388546,0.463021 0.498565,0 0.866911,-0.119153 1.104325,-0.356567 0.261156,-0.237414 0.474081,-0.640472 0.640271,-1.210262 l 1.496549,-4.914946 c 0.07122,-0.213672 0.106454,-0.415716 0.106454,-0.605647 0,-0.474828 -0.166298,-0.830222 -0.498678,-1.067635 -0.332378,-0.261156 -0.783616,-0.392225 -1.353405,-0.392225 -0.474829,0 -0.901713,0.08289 -1.281576,0.249081 -0.356121,0.16619 -0.819272,0.474955 -1.389062,0.926041 l -0.819589,0.676962 c -1.163325,-0.688501 -2.313949,-1.186879 -3.453536,-1.495516 -1.115842,-0.33238 -2.338993,-0.499195 -3.66851,-0.499195 z m 112.35593,0.213941 c -0.29935,0 -0.55757,0.01854 -0.78961,0.04961 -0.0268,0.100315 -0.3112,1.170669 -0.65164,2.8205 0.0365,0.140111 0.0884,0.265743 0.0884,0.44235 0,0.261156 -0.0477,0.545573 -0.14262,0.854212 l -0.49816,1.746146 c -0.40073,2.573168 -0.69166,5.581064 -0.46096,8.152991 0.52262,5.826625 5.54968,9.522004 5.6565,9.599931 0.34005,-0.04049 0.63806,-0.100512 0.85835,-0.196887 0.37986,-0.16619 0.56947,-0.46304 0.56947,-0.890385 0,-0.189931 -0.0472,-0.344314 -0.14211,-0.463021 -0.095,-0.142449 -0.27317,-0.321178 -0.53433,-0.534851 -0.30864,-0.237414 -0.54643,-0.462256 -0.71262,-0.675928 -0.14245,-0.213673 -0.21342,-0.487208 -0.21342,-0.819588 0,-0.237414 0.0243,-0.427026 0.0718,-0.569474 l 1.495,-5.306137 h 1.03249 c 0.2849,0 0.49886,0.04766 0.64131,0.142627 0.14245,0.09497 0.29683,0.307892 0.46302,0.640271 l 0.6413,1.211296 c 0.42735,0.783462 1.02053,1.175639 1.78026,1.175639 0.92591,0 1.56727,-0.582305 1.92339,-1.74563 l 1.56632,-5.413106 c 0.0712,-0.261155 0.10748,-0.486513 0.10748,-0.676445 0,-0.474827 -0.15438,-0.843169 -0.46302,-1.104325 -0.2849,-0.261155 -0.65323,-0.391191 -1.10432,-0.391191 -0.35612,0 -0.70012,0.08289 -1.0325,0.249081 -0.30864,0.142448 -0.66506,0.391637 -1.06867,0.747758 l -1.10381,0.926041 c -0.2849,0.261156 -0.55792,0.438852 -0.81907,0.533818 -0.23742,0.09497 -0.52235,0.142627 -0.85473,0.142627 h -0.67696 l 1.99471,-7.050733 h 3.56103 c 0.45109,0 0.74793,0.05854 0.89038,0.177251 0.14245,0.118706 0.26109,0.357014 0.35605,0.713134 l 0.56999,2.029334 c 0.16619,0.569793 0.4273,0.985796 0.78342,1.246952 0.35612,0.237414 0.83066,0.355534 1.4242,0.355534 0.61727,0 1.11669,-0.130552 1.49655,-0.391707 0.37986,-0.261155 0.65236,-0.69996 0.81855,-1.317233 l 0.92605,-3.311942 c 0.095,-0.308638 0.14262,-0.629836 0.14262,-0.962215 0,-0.664759 -0.24919,-1.186451 -0.74776,-1.566313 -0.47482,-0.379859 -1.15193,-0.569991 -2.03036,-0.569991 z m -0.97565,0.08733 c -0.17878,0.03401 -0.3533,0.06999 -0.48421,0.126091 -0.18837,0.06727 -0.32816,0.173003 -0.44028,0.301273 0.46921,-0.220094 0.77644,-0.362702 0.92449,-0.427364 z m -62.164162,4.791439 c -2.730258,0 -4.760033,0.391656 -6.089551,1.175122 -1.329515,0.783466 -1.99471,1.768822 -1.99471,2.955892 0,0.759725 0.321197,1.401086 0.962215,1.923397 0.664759,0.498569 1.578106,0.747241 2.741435,0.747241 1.234548,0 2.184166,-0.320163 2.848921,-0.961182 0.664759,-0.641017 0.997872,-1.401015 0.997872,-2.279447 0,-0.403604 -0.07149,-0.79526 -0.21394,-1.175122 0.735984,0 1.282022,0.142467 1.638143,0.427364 0.35612,0.284897 0.545733,0.712818 0.569474,1.282609 0,0.546051 -0.154382,1.317449 -0.463021,2.314587 l -0.890385,2.350761 c -1.899312,-0.617276 -3.833761,-0.926041 -5.804297,-0.926041 -1.75686,0 -3.276859,0.414969 -4.558895,1.245918 -1.258289,0.830949 -2.076835,2.066015 -2.456697,3.704167 -0.07122,0.356121 -0.10697,0.723429 -0.10697,1.103292 0,0.85469 0.202047,1.674265 0.605647,2.457731 0.427345,0.759724 1.068189,1.388654 1.922881,1.887223 0.85469,0.474828 1.911537,0.712101 3.169832,0.712101 1.115846,0 2.160261,-0.225356 3.133659,-0.676444 0.973393,-0.474828 1.816286,-1.139507 2.528528,-1.994194 0.332379,0.878429 0.936964,1.543107 1.815393,1.994194 0.878432,0.451088 1.935279,0.676444 3.169832,0.676444 1.020876,0 1.958575,-0.213958 2.813265,-0.641304 0.85469,-0.427345 1.531797,-0.973384 2.030367,-1.638143 0.522311,-0.664755 0.771499,-1.317003 0.747758,-1.95802 0,-0.213673 -0.04766,-0.403284 -0.142627,-0.569474 -0.07122,-0.16619 -0.16603,-0.250114 -0.284737,-0.250114 -0.07122,0 -0.214208,0.130552 -0.427881,0.391707 -0.189931,0.237415 -0.427205,0.356568 -0.712101,0.356568 -0.308639,0 -0.463021,-0.19013 -0.463021,-0.569991 0,-0.142449 0.01192,-0.261086 0.03566,-0.356051 l 1.460892,-4.914429 c 0.284897,-0.997139 0.426331,-1.887688 0.426331,-2.671155 0,-2.065502 -0.818541,-3.596383 -2.456698,-4.593518 -1.638153,-1.02088 -3.822314,-1.531689 -6.552571,-1.531689 z m 19.907312,0 c -1.471964,0 -2.884725,0.213963 -4.237984,0.641304 -1.353257,0.403604 -2.101342,0.87815 -2.243791,1.424203 -0.07122,0.237414 -0.0593,0.427029 0.03566,0.569474 0.09497,0.142448 0.261779,0.309264 0.499194,0.499194 0.237414,0.213673 0.403195,0.391886 0.498161,0.534335 0.118707,0.142448 0.177767,0.343459 0.177767,0.604614 0,0.213673 -0.02383,0.380488 -0.07131,0.499194 l -3.168799,10.291362 c -0.166189,0.569793 -0.368233,0.985796 -0.605647,1.246952 -0.237414,0.261155 -0.53478,0.486514 -0.890902,0.676445 -0.403604,0.213672 -0.652275,0.462861 -0.747241,0.747758 -0.07122,0.332379 0.03498,0.605402 0.319877,0.819071 0.261155,0.189931 0.700989,0.285254 1.318266,0.285254 h 9.116756 c 0.712241,0 1.210102,-0.07097 1.494999,-0.213424 0.308638,-0.142448 0.487368,-0.368326 0.534851,-0.676961 0.02374,-0.189931 -0.012,-0.344314 -0.10697,-0.463021 -0.09496,-0.118707 -0.284578,-0.27309 -0.569474,-0.463021 -0.308639,-0.189931 -0.558861,-0.38006 -0.748792,-0.569991 -0.16619,-0.213672 -0.24908,-0.474777 -0.24908,-0.783414 0,-0.237415 0.02435,-0.415111 0.07183,-0.533818 l 2.741435,-8.903332 c 0.142448,-0.474828 0.296831,-0.806908 0.46302,-0.996839 0.189931,-0.189931 0.403891,-0.285254 0.641305,-0.285254 0.213673,0 0.403801,0.09532 0.569991,0.285254 0.16619,0.189931 0.344403,0.486265 0.534334,0.889868 0.356121,0.712242 0.759693,1.282629 1.210779,1.709974 0.474828,0.427345 1.163334,0.640271 2.065507,0.640271 0.925915,0 1.721143,-0.260588 2.385901,-0.782898 0.664759,-0.522311 1.115992,-1.270911 1.353406,-2.244308 0.09497,-0.379862 0.14211,-0.794832 0.14211,-1.245919 0,-1.187065 -0.403576,-2.184341 -1.210779,-2.991548 -0.783466,-0.807209 -1.839801,-1.210779 -3.169315,-1.210779 -1.85183,0 -3.347478,0.842888 -4.487065,2.528528 -0.189928,-0.807207 -0.605938,-1.424739 -1.246952,-1.852084 -0.641018,-0.451086 -1.447644,-0.676444 -2.421041,-0.676444 z m 67.66305,0 c -1.47197,0 -2.88473,0.213963 -4.23798,0.641304 -1.35326,0.403604 -2.10134,0.87815 -2.24379,1.424203 -0.0712,0.237414 -0.0593,0.427029 0.0357,0.569474 0.095,0.142448 0.26076,0.309264 0.49817,0.499194 0.23742,0.16619 0.41614,0.332488 0.53485,0.498678 0.1187,0.142449 0.17776,0.343976 0.17776,0.605131 0,0.142449 -0.0352,0.320662 -0.10645,0.534334 l -3.09852,10.291362 c -0.16619,0.569793 -0.36824,0.985796 -0.60565,1.246952 -0.23741,0.261155 -0.53426,0.486514 -0.89038,0.676445 -0.4036,0.213672 -0.65279,0.462861 -0.74776,0.747758 -0.095,0.332379 -1.6e-4,0.605402 0.28474,0.819071 0.28489,0.189931 0.73612,0.285254 1.3534,0.285254 h 8.11992 c 0.73598,0 1.28202,-0.07097 1.63814,-0.213424 0.35612,-0.142448 0.59341,-0.368326 0.71211,-0.676961 0.0475,-0.16619 0.0361,-0.297259 -0.0351,-0.392224 -0.0712,-0.118707 -0.19038,-0.261174 -0.35657,-0.427364 -0.21367,-0.16619 -0.37998,-0.331971 -0.49868,-0.498161 -0.11871,-0.189931 -0.17828,-0.439123 -0.17828,-0.747758 0,-0.213673 0.0362,-0.462861 0.10748,-0.747758 l 3.2762,-10.648443 c 0.16619,-0.498569 0.24908,-1.020264 0.24908,-1.566312 0,-0.902173 -0.32016,-1.614509 -0.96118,-2.136821 -0.64101,-0.52231 -1.65021,-0.783931 -3.02721,-0.783931 z m 26.03252,0 c -1.47197,0 -2.88471,0.213963 -4.23798,0.641304 -1.35326,0.403604 -2.10134,0.87815 -2.24379,1.424203 -0.0712,0.237414 -0.0593,0.427029 0.0357,0.569474 0.095,0.142448 0.26076,0.309264 0.49817,0.499194 0.23741,0.213673 0.4037,0.391886 0.49867,0.534335 0.1187,0.142448 0.17829,0.343459 0.17829,0.604614 0,0.213673 -0.0238,0.380488 -0.0713,0.499194 l -3.16983,10.291362 c -0.16619,0.569793 -0.3672,0.985796 -0.60461,1.246952 -0.23742,0.261155 -0.53427,0.486514 -0.89039,0.676445 -0.40361,0.213672 -0.65279,0.462861 -0.74776,0.747758 -0.0712,0.332379 0.0349,0.605402 0.31988,0.819071 0.26116,0.189931 0.70099,0.285254 1.31827,0.285254 h 8.11888 c 0.75973,0 1.3182,-0.07097 1.67432,-0.213424 0.35612,-0.142448 0.58199,-0.368326 0.67696,-0.676961 0.0475,-0.16619 0.035,-0.308657 -0.0362,-0.427364 -0.0712,-0.118707 -0.18986,-0.249775 -0.35605,-0.392224 -0.21366,-0.189931 -0.37946,-0.367628 -0.49816,-0.533818 -0.11871,-0.18993 -0.17828,-0.427208 -0.17828,-0.712101 0,-0.237414 0.0477,-0.486603 0.14263,-0.747758 l 2.35024,-7.62124 c 0.28489,-0.759725 0.6408,-1.305763 1.06815,-1.638143 0.42734,-0.356121 0.84231,-0.534334 1.24592,-0.534334 0.28489,0 0.5232,0.09481 0.71314,0.284737 0.21367,0.16619 0.32039,0.403979 0.32039,0.712618 0,0.189931 -0.0595,0.438607 -0.17828,0.747241 l -1.95854,5.128369 c -0.42735,1.092105 -0.6413,2.077982 -0.6413,2.956409 0.0237,1.210812 0.49881,2.183735 1.42471,2.919718 0.92592,0.712243 2.17237,1.068669 3.73931,1.068669 1.28203,0 2.37412,-0.202044 3.27629,-0.605648 0.92592,-0.427341 1.62633,-0.960955 2.10116,-1.601969 0.47483,-0.66476 0.70019,-1.341867 0.67645,-2.030367 0,-0.213673 -0.0357,-0.39137 -0.10698,-0.533818 -0.0712,-0.16619 -0.16602,-0.24908 -0.28473,-0.24908 -0.0712,0 -0.2142,0.130035 -0.42788,0.39119 -0.18993,0.237414 -0.42721,0.356568 -0.7121,0.356568 -0.14245,0 -0.26057,-0.04818 -0.35554,-0.143144 -0.0712,-0.09497 -0.10749,-0.225518 -0.10749,-0.391707 0,-0.189932 0.0243,-0.331882 0.0718,-0.426848 l 1.95853,-6.375321 c 0.33238,-0.759725 0.71213,-1.317161 1.13947,-1.673283 0.42735,-0.356121 0.84282,-0.534334 1.24643,-0.534334 0.28489,0 0.52217,0.09481 0.7121,0.284737 0.21367,0.16619 0.32091,0.403979 0.32091,0.712618 0,0.189931 -0.0595,0.438607 -0.17828,0.747241 l -1.95854,5.128369 c -0.42734,1.092105 -0.64078,2.077982 -0.64078,2.956409 0.0237,1.210812 0.49829,2.183735 1.4242,2.919718 0.92592,0.712243 2.17238,1.068669 3.73931,1.068669 1.28202,0 2.37411,-0.202044 3.27628,-0.605648 0.92592,-0.427341 1.62634,-0.960955 2.10117,-1.601969 0.47481,-0.66476 0.70071,-1.341867 0.67696,-2.030367 0,-0.213673 -0.0363,-0.39137 -0.10749,-0.533818 -0.0712,-0.16619 -0.16603,-0.24908 -0.28474,-0.24908 -0.0712,0 -0.21369,0.130035 -0.42736,0.39119 -0.18993,0.237414 -0.4272,0.356568 -0.7121,0.356568 -0.14245,0 -0.26108,-0.04818 -0.35605,-0.143144 -0.0712,-0.09497 -0.10697,-0.225518 -0.10697,-0.391707 0,-0.189932 0.0233,-0.331882 0.0708,-0.426848 l 2.173,-7.015592 c 0.23742,-0.712241 0.35553,-1.437011 0.35553,-2.172994 0,-1.400743 -0.45124,-2.539964 -1.35341,-3.418396 -0.87843,-0.878427 -2.04097,-1.317749 -3.48919,-1.317749 -1.377,0 -2.64782,0.320164 -3.81113,0.961182 -1.16333,0.617272 -2.25541,1.733701 -3.27629,3.348116 -0.095,-1.282036 -0.58143,-2.315053 -1.45986,-3.098519 -0.85469,-0.807209 -1.97007,-1.210779 -3.34708,-1.210779 -1.25829,0 -2.43379,0.261621 -3.52589,0.783931 -1.06835,0.522312 -2.08895,1.460009 -3.06234,2.813265 0.0237,-1.115843 -0.30937,-1.995 -0.99787,-2.636014 -0.66476,-0.641018 -1.57812,-0.961182 -2.74144,-0.961182 z M 61.352327,87.003992 c 0.49857,0 0.949806,0.03575 1.353406,0.10697 l -0.747758,2.101164 c -0.16619,0.498565 -0.438693,0.878827 -0.818554,1.139982 -0.356122,0.237415 -0.689234,0.355534 -0.997872,0.355534 -0.332376,0 -0.592967,-0.118119 -0.782898,-0.355534 -0.16619,-0.237414 -0.249597,-0.54618 -0.249597,-0.926042 0,-0.593535 0.201526,-1.139573 0.605131,-1.638143 0.427344,-0.52231 0.973383,-0.783931 1.638142,-0.783931 z m 68.005153,8.017598 -1.6521,0.03101 h 1.16789 c 0.18358,0 0.32279,-0.02066 0.48421,-0.03101 z m -17.68574,0.33228 -0.38551,0.0083 c 0.0592,0.0012 0.11265,0.01085 0.1726,0.01085 0.0768,0 0.13753,-0.01761 0.21291,-0.01912 z" /></g></svg>
