<?xml version="1.0" encoding="UTF-8"?>
<!DOCTYPE svg PUBLIC "-//W3C//DTD SVG 1.1//EN" "http://www.w3.org/Graphics/SVG/1.1/DTD/svg11.dtd">
<svg xmlns="http://www.w3.org/2000/svg" version="1.1" width="654px" height="654px" style="shape-rendering:geometricPrecision; text-rendering:geometricPrecision; image-rendering:optimizeQuality; fill-rule:evenodd; clip-rule:evenodd" xmlns:xlink="http://www.w3.org/1999/xlink">
<g><path style="opacity:0.995" fill="#fefefe" d="M 317.5,7.5 C 342.164,32.3354 368.497,55.1687 396.5,76C 431.787,104.77 459.287,139.603 479,180.5C 491.971,212.962 496.637,246.629 493,281.5C 491.105,300.406 487.938,319.073 483.5,337.5C 476.036,304.735 460.369,276.569 436.5,253C 414.952,234.725 390.286,223.225 362.5,218.5C 363.465,217.279 363.298,215.946 362,214.5C 352.049,198.872 340.216,184.705 326.5,172C 304.203,152.524 281.537,133.524 258.5,115C 231.836,92.5236 209.836,66.3569 192.5,36.5C 232.073,18.0504 273.74,8.38372 317.5,7.5 Z"/></g>
<g><path style="opacity:0.993" fill="#029688" d="M 317.5,7.5 C 424.735,6.59758 511.901,47.5976 579,130.5C 639.792,211.091 659.792,301.091 639,400.5C 614.942,490.846 562.775,559.68 482.5,607C 475.475,611.204 468.141,614.704 460.5,617.5C 452.384,603.211 442.884,589.878 432,577.5C 421.5,567 411,556.5 400.5,546C 376.947,527.716 353.947,508.716 331.5,489C 315.715,474.402 302.048,458.235 290.5,440.5C 290.5,439.833 290.5,439.167 290.5,438.5C 317.329,442.579 343.996,442.246 370.5,437.5C 373.127,436.908 375.794,436.575 378.5,436.5C 378.181,441.363 378.514,446.03 379.5,450.5C 416.167,450.5 452.833,450.5 489.5,450.5C 489.667,423.831 489.5,397.165 489,370.5C 488.027,359.329 486.194,348.329 483.5,337.5C 487.938,319.073 491.105,300.406 493,281.5C 496.637,246.629 491.971,212.962 479,180.5C 459.287,139.603 431.787,104.77 396.5,76C 368.497,55.1687 342.164,32.3354 317.5,7.5 Z"/></g>
<g><path style="opacity:0.989" fill="#019688" d="M 192.5,36.5 C 209.836,66.3569 231.836,92.5236 258.5,115C 281.537,133.524 304.203,152.524 326.5,172C 340.216,184.705 352.049,198.872 362,214.5C 363.298,215.946 363.465,217.279 362.5,218.5C 333.369,214.014 304.369,214.68 275.5,220.5C 275.5,214.833 275.5,209.167 275.5,203.5C 239.5,203.5 203.5,203.5 167.5,203.5C 167.333,226.836 167.5,250.169 168,273.5C 168.69,288.923 170.19,304.256 172.5,319.5C 168.119,330.689 165.119,342.355 163.5,354.5C 153.017,414.722 165.184,469.722 200,519.5C 213.985,538.494 229.818,555.994 247.5,572C 275.985,595.004 303.818,618.838 331,643.5C 331.513,644.527 332.013,645.527 332.5,646.5C 238.913,647.488 159.747,614.488 95,547.5C 18.6849,463.421 -8.14839,365.588 14.5,254C 41.4262,154.914 100.76,82.4135 192.5,36.5 Z"/></g>
<g><path style="opacity:1" fill="#fefefe" d="M 275.5,220.5 C 275.333,239.503 275.5,258.503 276,277.5C 277.794,290.749 282.128,303.082 289,314.5C 299.887,326.408 313.387,331.075 329.5,328.5C 345.551,331.379 356.718,340.379 363,355.5C 365.709,363.291 367.376,371.291 368,379.5C 367.843,399.193 368.676,418.526 370.5,437.5C 343.996,442.246 317.329,442.579 290.5,438.5C 223.713,426.047 184.38,386.38 172.5,319.5C 170.19,304.256 168.69,288.923 168,273.5C 167.5,250.169 167.333,226.836 167.5,203.5C 203.5,203.5 239.5,203.5 275.5,203.5C 275.5,209.167 275.5,214.833 275.5,220.5 Z"/></g>
<g><path style="opacity:1" fill="#fe4081" d="M 362.5,218.5 C 390.286,223.225 414.952,234.725 436.5,253C 460.369,276.569 476.036,304.735 483.5,337.5C 486.194,348.329 488.027,359.329 489,370.5C 489.5,397.165 489.667,423.831 489.5,450.5C 452.833,450.5 416.167,450.5 379.5,450.5C 379.667,427.831 379.5,405.164 379,382.5C 378.354,367.898 374.021,354.565 366,342.5C 355.867,332.749 343.701,328.083 329.5,328.5C 313.387,331.075 299.887,326.408 289,314.5C 282.128,303.082 277.794,290.749 276,277.5C 275.5,258.503 275.333,239.503 275.5,220.5C 304.369,214.68 333.369,214.014 362.5,218.5 Z"/></g>
<g><path style="opacity:1" fill="#d64282" d="M 172.5,319.5 C 184.38,386.38 223.713,426.047 290.5,438.5C 290.5,439.167 290.5,439.833 290.5,440.5C 231.196,436.093 188.862,407.427 163.5,354.5C 165.119,342.355 168.119,330.689 172.5,319.5 Z"/></g>
<g><path style="opacity:1" fill="#dbafc9" d="M 329.5,328.5 C 343.701,328.083 355.867,332.749 366,342.5C 374.021,354.565 378.354,367.898 379,382.5C 379.5,405.164 379.667,427.831 379.5,450.5C 378.514,446.03 378.181,441.363 378.5,436.5C 375.794,436.575 373.127,436.908 370.5,437.5C 368.676,418.526 367.843,399.193 368,379.5C 367.376,371.291 365.709,363.291 363,355.5C 356.718,340.379 345.551,331.379 329.5,328.5 Z"/></g>
<g><path style="opacity:0.995" fill="#fe4081" d="M 163.5,354.5 C 188.862,407.427 231.196,436.093 290.5,440.5C 302.048,458.235 315.715,474.402 331.5,489C 353.947,508.716 376.947,527.716 400.5,546C 411,556.5 421.5,567 432,577.5C 442.884,589.878 452.384,603.211 460.5,617.5C 420.232,637.091 377.565,646.757 332.5,646.5C 332.013,645.527 331.513,644.527 331,643.5C 303.818,618.838 275.985,595.004 247.5,572C 229.818,555.994 213.985,538.494 200,519.5C 165.184,469.722 153.017,414.722 163.5,354.5 Z"/></g>
</svg>
